<svg xmlns="http://www.w3.org/2000/svg" viewBox="0 0 472.37 165.43">
  <defs>
    <style>
      .cls-1 { fill: #3f4d64; }
      .cls-2, .cls-4 { fill: none; }
      .cls-3, .cls-5, .cls-6, .cls-7 { fill: #fff; }
      .cls-4 { stroke: #404d64; stroke-miterlimit: 10; }
      /* Using system fonts instead of custom fonts */
      .cls-3 { font-family: 'Courier New', monospace; font-size: 75.13px; font-weight: bold; }
      .cls-6 { font-family: 'Courier New', monospace; font-size: 34.71px; font-weight: bold; }
      .cls-7 { font-family: 'Courier New', monospace; font-size: 36px; font-weight: normal; }
    </style>
  </defs>
  <title>Lumina Oz Game Dev</title>
  <g id="Layer_2" data-name="Layer 2">
    <g id="Layer_1-2" data-name="Layer 1">
      <rect class="cls-1" y="2.16" width="472.37" height="163.27" rx="15"/>
      <line class="cls-2" x1="398.56" y1="129.5" x2="409.02" y2="124.09"/>
      <line class="cls-2" x1="385.09" y1="128.12" x2="384.83" y2="128.12"/>
      <text class="cls-3" transform="translate(10.98 65.08) scale(1.08 1)">LUMINA</text>
      <line class="cls-2" y1="78.77" x2="313.38" y2="77.68"/>
      <line class="cls-4" x1="150.77" y1="78.25" x2="150.77" y2="78.25"/>
      <line class="cls-4" x1="168.72" y1="78.18" x2="168.72" y2="78.18"/>
      <path class="cls-5" d="M430.27,111.48c-2.87,8.07-5.72,16.11-8.65,24.36l-8.23-7.55c-1.81,1.45-3.75,2.58-4.93,4.67-3.45,6.14-7.08,15.51-10.64,21.6-.16.27-.34.53-.69,1.08-.34-2.51-.66-8.06-.95-10.28-.54-4-1.05-8-1.61-12a4.13,4.13,0,0,0-.65-1.76Q382.48,116,371,100.42c-.14-.19-.31-.36-.57-.67l-1.32,1.08c-.79.66-1.53,1.37-2.36,2a26.76,26.76,0,0,0-8,9.35c-1.83,3.44-4,6.73-6,10.08-.19.33-.42.65-.83,1.27,0-3.06-.08-5.79,0-8.52a27.08,27.08,0,0,0-1.12-8.47c-2.05-7.3-4-14.62-5.92-22a2.89,2.89,0,0,1,.26-2c3.71-6.64,7.49-13.25,11.24-19.87.35-.62.69-1.25,1.19-2.19-.7.29-1.11.44-1.49.62q-7.49,3.54-15,7.08a2.29,2.29,0,0,1-1.39.23c-6.59-1.83-13.17-3.7-20-5.65,2.37-.95,4.45-2,6.64-2.64a26.52,26.52,0,0,0,11.7-7.61c6-6.32,12.23-12.35,18.35-18.52a2.76,2.76,0,0,1,2.18-.89c6.33,0,12.66,0,19,.06a3.78,3.78,0,0,1,1.93.6c1.57,1,3.06,2.14,4.8,3.05-.45-.78-.9-1.57-1.36-2.34-.2-.35-.45-.68-.62-1a35.25,35.25,0,0,0-8.77-10.93c-1.92-1.66-3.69-3.47-5.52-5.22-.25-.25-.47-.52-1-1.07L400.85,21c-2.68-3.39-5.14-6.49-7.59-9.6l.16-.18q3.3,1.9,6.59,3.82,8.72,5.1,17.42,10.23a3.11,3.11,0,0,1,1.19,1.14c2.22,4.5,4.39,9,6.58,13.55.08.17.14.36.29.76-1.46-.36-2.79-.62-4.07-1-8.16-2.61-16.67-3.39-25.16-4.34-.82-.09-1,.2-1.11.86-.29,1.93-.58,3.86-1,5.77a2.29,2.29,0,0,1-.95,1.37c-4.72,2.88-9.48,5.71-14.22,8.56-.38.22-.76.46-1.22.74.62,1.18,1.12,2.32,1.78,3.37a31.45,31.45,0,0,1,4,11.08c.8,4.35,1.84,8.65,2.74,13a1.39,1.39,0,0,0,1.25,1.27c3.76.63,6.39,2.73,8.72,5.5,2.88,3.42,6,6.61,9.12,9.87a9.72,9.72,0,0,0,2.11,1.66c7.27,4.19,14.56,8.34,21.84,12.51C429.65,111.07,429.91,111.26,430.27,111.48Z"/>
      <path class="cls-5" d="M403.59,44.1l-5.08-5.29,16.71,3.74c3.87.87,7.74,1.76,11.62,2.58A2.76,2.76,0,0,1,429,46.68c1.24,2.44,2.58,4.83,3.94,7.21a5.11,5.11,0,0,0,1.33,1.53q7.67,6,15.4,11.91a2.1,2.1,0,0,1,1,2c-.07,1.19,0,2.38,0,3.64l-9,1.58-.06.28L449,79c-1.18,2.82-2.31,5.59-3.51,8.33a1.67,1.67,0,0,1-1.05.69c-5.52,1.33-11,2.65-16.58,3.9a4.12,4.12,0,0,1-2.38-.22C415,87,404.52,82.25,394,77.54a2.7,2.7,0,0,1-1.74-2.07c-1.23-5.28-2.54-10.54-3.87-15.8a1.79,1.79,0,0,1,.66-2q7-6.47,13.89-13C403.15,44.56,403.31,44.38,403.59,44.1Zm23,15.09.25-.22c-1.66-2.28-3.31-4.57-5-6.83a1.74,1.74,0,0,0-1.07-.47c-3.33-.39-6.66-.75-10-1.11a4.89,4.89,0,0,0-.79.13Z"/>
      <path class="cls-5" d="M445.31,92.44c1.66,3.74,1.45,6.63-.82,11.37a53.26,53.26,0,0,1-5.56-2c-3-1.45-6.12-1.35-9.3-1-.87.09-1.74.12-2.81.19,0-1.78,0-3.48.05-5.16,0-.21.66-.5,1-.56C433.69,94.3,439.46,93.38,445.31,92.44Z"/>
      <text class="cls-6" transform="translate(138.29 111.27) scale(1.06 1)">OZ</text>
      <text class="cls-7" transform="translate(75 152.36) scale(1.08 1)">Game Dev</text>
    </g>
  </g>
</svg>